inDegrees=no
num_controls=7
num_derivatives=13
num_iterations=111
num_multipliers=7
num_parameters=0
num_slacks=7
num_states=26
objective=5.260520
objective_accelerations=0.479359
objective_balance=0.093739
objective_effort=0.382092
objective_height=4.243675
objective_ligament=0.061655
solver_duration=1258.186443
status=Solve_Succeeded
success=true
DataType=double
version=3
OpenSimVersion=4.4-2022-07-23-0e9fedc
endheader
time	/jointset/ground_pelvis/pelvis_tilt/value	/jointset/ground_pelvis/pelvis_tx/value	/jointset/ground_pelvis/pelvis_ty/value	/jointset/hip_l/hip_flexion_l/value	/jointset/hip_l/hip_adduction_l/value	/jointset/hip_l/hip_rotation_l/value	/jointset/back/lumbar_extension/value	/jointset/patellofemoral_l/patellar_flexion_l/value	/jointset/knee_l/knee_flexion_l/value	/jointset/knee_l/knee_adduction_l/value	/jointset/knee_l/knee_rotation_l/value	/jointset/ankle_l/ankle_angle_l/value	/jointset/subtalar_l/subtalar_angle_l/value	/jointset/ground_pelvis/pelvis_tilt/speed	/jointset/ground_pelvis/pelvis_tx/speed	/jointset/ground_pelvis/pelvis_ty/speed	/jointset/hip_l/hip_flexion_l/speed	/jointset/hip_l/hip_adduction_l/speed	/jointset/hip_l/hip_rotation_l/speed	/jointset/back/lumbar_extension/speed	/jointset/patellofemoral_l/patellar_flexion_l/speed	/jointset/knee_l/knee_flexion_l/speed	/jointset/knee_l/knee_adduction_l/speed	/jointset/knee_l/knee_rotation_l/speed	/jointset/ankle_l/ankle_angle_l/speed	/jointset/subtalar_l/subtalar_angle_l/speed	/forceset/tau_hip_flexion_l	/forceset/tau_hip_adduction_l	/forceset/tau_hip_rotation_l	/forceset/tau_knee_flexion_l	/forceset/tau_ankle_angle_l	/forceset/tau_subtalar_angle_l	/forceset/tau_lumbar_extension	lambda_cid13_p0	lambda_cid13_p1	lambda_cid13_p2	lambda_cid13_p3	lambda_cid13_p4	lambda_cid13_p5	lambda_cid14_p0	/jointset/ground_pelvis/pelvis_tilt/accel	/jointset/ground_pelvis/pelvis_tx/accel	/jointset/ground_pelvis/pelvis_ty/accel	/jointset/hip_l/hip_flexion_l/accel	/jointset/hip_l/hip_adduction_l/accel	/jointset/hip_l/hip_rotation_l/accel	/jointset/back/lumbar_extension/accel	/jointset/patellofemoral_l/patellar_flexion_l/accel	/jointset/knee_l/knee_flexion_l/accel	/jointset/knee_l/knee_adduction_l/accel	/jointset/knee_l/knee_rotation_l/accel	/jointset/ankle_l/ankle_angle_l/accel	/jointset/subtalar_l/subtalar_angle_l/accel	gamma_cid13_p0	gamma_cid13_p1	gamma_cid13_p2	gamma_cid13_p3	gamma_cid13_p4	gamma_cid13_p5	gamma_cid14_p0
1	-0.5875631706945648	-0.09456814460712368	0.6533626778652158	1.727522019831178	-0.3015067264076179	0.09592904789707868	-0.4363265033174057	1.082911991984307	1.082911991985488	-0.1745062684841041	0.1745174151555798	0.1345366240639143	-0.02509813650550726	-0.0104045535596605	0.0004729409009159308	-0.003258562113889024	0.01677531812828745	0.0004241795644174893	0.003418118290658871	0.000236245482045501	0.008816550752054866	0.008816550752053917	-0.0003079110576291488	4.833973821369617e-05	0.003059765720599257	0.001007047811474741	-0.3970221561351209	0.02688344771057811	-0.02028677387798683	-0.2367863424645185	0.08390223864794688	0.03618461208789878	0.3290118594174384	-17.79766937030264	-13.20294845379922	2.392650251590154	9.605173326880376	-711.2134580726839	-44.88115952294141	-4.600967570488704	1.772244203645973	0.2381818599571721	1.399877962039851	-5.519987836389726	-0.243433803636319	-1.548283280398766	-0.04260250191342588	-4.26871250329166	-4.268712503292097	-0.01208015865013677	0.009989884967468004	-0.788999676588459	-0.3849142683125191	8.94752572620888e-10	2.577032241353597e-09	-4.70788012692482e-09	-5.209984936397844e-10	1.03009429648868e-09	-9.763978593589781e-10	1.050801023102479e-09
1.01	-0.5875795976078151	-0.09455160853857082	0.6533998963319748	1.727415171007386	-0.3015139633005401	0.09588536322457379	-0.4363253727382347	1.082787031980191	1.082787031980438	-0.1745084038165514	0.1745178295613418	0.1345278551060941	-0.02510651673668734	0.007082455877460384	0.00282931160253778	0.01069291347883415	-0.03809261389882307	-0.001872235567934313	-0.01214282110236437	8.504629037063132e-06	-0.03380519109877449	-0.03380519109877898	-0.0001308927903395339	3.061536103656484e-05	-0.004826203241783251	-0.002686457032177226	-0.3966123445911992	0.02686461907447731	-0.02029438724674321	-0.2368145119375581	0.08401245200031925	0.03616962759834869	0.3286931622047559	-17.74233499878349	-13.2074766771805	2.394911195830979	9.591046473866216	-710.8654867711507	-44.89547317360176	-4.606754060623945	1.731421737004058	0.2336206866969021	1.391380418127733	-5.462325932386166	-0.2228492219257832	-1.558167863351734	-0.01006474985765473	-4.25840014374696	-4.258400143747108	0.03083108704845601	-0.008246867203247467	-0.7902921919126874	-0.3620743666909408	-2.449292846302335e-09	-6.0811318512816e-09	1.925309088663905e-08	9.480849513675449e-10	-3.166037925683373e-09	8.05399226076702e-09	-4.002440337739655e-09
1.02	-0.5874222559420456	-0.09451165756071539	0.6535763491667103	1.726761216853991	-0.3015441851155648	0.09568643543922745	-0.4363259605413124	1.082235955534013	1.082235955533355	-0.1745091213128507	0.1745179480697339	0.1344398471214809	-0.0251519331711637	0.02434916224495716	0.005155922761433102	0.02458831148121205	-0.09264574778650915	-0.004172804855940974	-0.0276305042792856	-0.0001074311384588046	-0.07640673766032621	-0.07640673766032717	-2.434381785387261e-05	-1.083974185416927e-05	-0.01278803963814316	-0.006400192847804521	-0.3962025330474149	0.02684579043838736	-0.02030200061555507	-0.2368426814105666	0.08412266535272464	0.03615464310881749	0.3283744649919115	-17.69471965206353	-13.21110160167251	2.397540063467916	9.60287402445784	-710.6187406671336	-44.88762120911599	-4.632206793743078	1.728183589721191	0.2322299514118362	1.388662443970787	-5.457028208504808	-0.2442646347672502	-1.533632037178431	-0.0202414848114739	-4.264673445436111	-4.264673445435133	-0.02617401761080304	0.005243739824736544	-0.8041731633839742	-0.3889604627075469	-5.503552273460697e-09	-1.498643088897354e-08	3.558320553054941e-08	2.610711182876887e-09	-8.101233695905315e-09	1.4856571430352e-08	-7.74407357710805e-09
1.03	-0.5870927342184854	-0.09444848030723917	0.6538915266729705	1.725562639612872	-0.3015973627426229	0.0953328876081574	-0.4363273732303137	1.081259106496928	1.081259106497124	-0.1745089431306795	0.1745176025329331	0.1342720467699349	-0.02523446304134725	0.04157946114849136	0.007485415700588829	0.0384429445942356	-0.1470833541832438	-0.006455868391365281	-0.04307914022268503	-0.0001784047257404334	-0.1189454810619317	-0.1189454810619236	6.836406548235807e-05	-5.510974069544379e-05	-0.02076404940535119	-0.01009610476520591	-0.3960927342840471	0.02694698363949258	-0.02030729039081137	-0.2365560770650227	0.08402690702788244	0.03624879897153611	0.3283574864053805	-17.71087671016574	-13.2563983746231	2.413024457996074	9.552880227667224	-710.4470167883668	-44.92896666153318	-4.67749165310133	1.724093857824575	0.2341929953251245	1.383224329680724	-5.439176204285573	-0.2193046755179357	-1.550501449307417	-0.001020005546670454	-4.245834166153493	-4.24583416615268	0.02824626258029794	-0.008800669590950001	-0.7931175905744841	-0.3584574084832686	-8.55485470070309e-09	-2.389425171181911e-08	5.183545429313674e-08	4.275312340779108e-09	-1.304397093090328e-08	2.163641783513552e-08	-1.147232306013487e-08
1.04	-0.5865901813424628	-0.09436183131833985	0.6543451226273046	1.723819276437956	-0.3016731664975536	0.09482484900239228	-0.4363295945966382	1.079857398150099	1.079857398151179	-0.1745075872554574	0.1745169066362072	0.1340247257792809	-0.02535366220115005	0.05895539273824518	0.009850269846050363	0.05227200109580298	-0.2016029345410939	-0.00869803043031883	-0.05852865922154327	-0.0002691667073726171	-0.1613785996087563	-0.1613785996087422	0.000211194799796124	-8.09117336281872e-05	-0.02869216745996666	-0.01373405077168005	-0.3959829355207891	0.02704817684062894	-0.02031258016623021	-0.2362694727194431	0.08393114870307387	0.03634295483429687	0.3283405078187164	-17.73476352361975	-13.30080632786835	2.428897769280263	9.528794030371371	-710.3765972891322	-44.94847602508154	-4.742829488410351	1.757310126965138	0.2393021926729944	1.383547121679542	-5.473423000727882	-0.2360843354731658	-1.533808648270202	-0.02419916367889477	-4.243548474479881	-4.243548474479555	-0.01614944741539573	0.008937341006544393	-0.7945948208654831	-0.3773672805221793	-1.255990994914042e-08	-3.290287580199085e-08	7.004927607522075e-08	7.737634735813803e-09	-1.840434772530299e-08	2.858839340109558e-08	-1.556425210019723e-08
1.05	-0.5859135205288751	-0.09425127514767516	0.6549368353306688	1.721530619551854	-0.3017711594454894	0.09416239206992758	-0.4363317200781652	1.078031878632877	1.078031878633756	-0.1745046196204528	0.1745160158639073	0.1336984293810474	-0.02550890248050303	0.07636352791218746	0.01227516344651784	0.06606178610011154	-0.2561115128806458	-0.01089058312782994	-0.07395813253902596	-4.916343518296077e-05	-0.2037081614693728	-0.203708161469365	0.0003873590927632191	-9.554786770911319e-05	-0.03655209574213707	-0.01729901974792509	-0.3962578404617129	0.02725404578321369	-0.02031737755568237	-0.2357355374227259	0.08379200922632964	0.03651721103841574	0.328777306248343	-17.77517452454873	-13.38230723640781	2.456622881701289	9.365020094967415	-710.4791482645498	-45.00567934768351	-4.8286046372929	1.730577338487799	0.2462151044867421	1.375376358385423	-5.437037913485894	-0.2093532210273247	-1.546845233913206	0.06111503576776724	-4.225084711986147	-4.225084711987241	0.03524559750541001	-0.006430306497081342	-0.7794395532152312	-0.3438176215507358	-1.659476997324008e-08	-4.191464999426653e-08	8.832439701416403e-08	1.125613591950888e-08	-2.377777575593399e-08	3.554574800334241e-08	-1.966754612641694e-08
